_12Mar_ss_12ms_01.mot
version=1
nRows=42
nColumns=19
inDegrees=yes
endheader

time	ground_force_vx	ground_force_vy	ground_force_vz	ground_force_px	ground_force_py	ground_force_pz	ground_torque_x	ground_torque_y	ground_torque_z	1_ground_force_vx	1_ground_force_vy	1_ground_force_vz	1_ground_force_px	1_ground_force_py	1_ground_force_pz	1_ground_torque_x	1_ground_torque_y	1_ground_torque_z
26.667000	46.011530	803.658704	-175.327324	0.396378	0.000000	-0.571064	0.000023	-7.205528	0.000013	42.267607	390.553430	21.474794	0.559524	0.000000	-1.113851	0.000022	-17.658795	0.000011
26.668000	45.173995	798.732415	-175.856449	0.396522	0.000000	-0.569972	0.000023	-7.240082	0.000013	41.428643	397.581423	23.274121	0.559699	0.000000	-1.113441	0.000023	-17.729375	0.000011
26.669000	44.319233	793.690972	-176.355273	0.396668	0.000000	-0.568878	0.000023	-7.275274	0.000013	40.518260	404.507353	25.100831	0.559879	0.000000	-1.113034	0.000023	-17.791391	0.000011
26.670000	43.447603	788.533737	-176.822404	0.396817	0.000000	-0.567782	0.000023	-7.311141	0.000013	39.537627	411.328324	26.953041	0.560064	0.000000	-1.112630	0.000024	-17.845005	0.000011
26.671000	42.559499	783.260128	-177.256429	0.396968	0.000000	-0.566683	0.000023	-7.347722	0.000013	38.488063	418.041781	28.828877	0.560254	0.000000	-1.112228	0.000024	-17.890388	0.000011
26.672000	41.655351	777.869628	-177.655922	0.397122	0.000000	-0.565581	0.000022	-7.385055	0.000013	37.371031	424.645517	30.726484	0.560448	0.000000	-1.111829	0.000024	-17.927720	0.000011
26.673000	40.735620	772.361786	-178.019442	0.397279	0.000000	-0.564478	0.000022	-7.423175	0.000013	36.188136	431.137670	32.644030	0.560647	0.000000	-1.111432	0.000025	-17.957190	0.000011
26.674000	39.800803	766.736223	-178.345536	0.397438	0.000000	-0.563372	0.000022	-7.462116	0.000013	34.941117	437.516729	34.579715	0.560851	0.000000	-1.111037	0.000025	-17.978995	0.000012
26.675000	38.851433	760.992639	-178.632744	0.397599	0.000000	-0.562263	0.000022	-7.501911	0.000013	33.631841	443.781538	36.531774	0.561059	0.000000	-1.110644	0.000025	-17.993337	0.000012
26.676000	37.888073	755.130815	-178.879600	0.397763	0.000000	-0.561152	0.000022	-7.542591	0.000013	32.262297	449.931290	38.498482	0.561271	0.000000	-1.110252	0.000026	-18.000428	0.000012
26.677000	36.911323	749.150623	-179.084637	0.397930	0.000000	-0.560039	0.000021	-7.584185	0.000013	30.834588	455.965532	40.478162	0.561487	0.000000	-1.109862	0.000026	-18.000481	0.000012
26.678000	35.921814	743.052026	-179.246387	0.398099	0.000000	-0.558923	0.000021	-7.626718	0.000013	29.350927	461.884160	42.469188	0.561708	0.000000	-1.109472	0.000027	-17.993716	0.000012
26.679000	34.920212	736.835086	-179.363390	0.398271	0.000000	-0.557805	0.000021	-7.670213	0.000012	27.813628	467.687421	44.469988	0.561932	0.000000	-1.109083	0.000027	-17.980359	0.000012
26.680000	33.907214	730.499968	-179.434191	0.398445	0.000000	-0.556684	0.000021	-7.714691	0.000012	26.225097	473.375902	46.479046	0.562160	0.000000	-1.108695	0.000027	-17.960636	0.000012
26.681000	32.883548	724.046946	-179.457350	0.398621	0.000000	-0.555561	0.000021	-7.760169	0.000012	24.587827	478.950533	48.494908	0.562392	0.000000	-1.108308	0.000028	-17.934779	0.000012
26.682000	31.849972	717.476410	-179.431442	0.398800	0.000000	-0.554436	0.000020	-7.806660	0.000012	22.904389	484.412576	50.516181	0.562627	0.000000	-1.107921	0.000028	-17.903021	0.000012
26.683000	30.807277	710.788864	-179.355062	0.398982	0.000000	-0.553308	0.000020	-7.854174	0.000012	21.177425	489.763621	52.541536	0.562866	0.000000	-1.107533	0.000028	-17.865597	0.000012
26.684000	29.756279	703.984939	-179.226833	0.399166	0.000000	-0.552177	0.000020	-7.902716	0.000012	19.409640	495.005579	54.569708	0.563107	0.000000	-1.107146	0.000029	-17.822744	0.000012
26.685000	28.697824	697.065392	-179.045403	0.399352	0.000000	-0.551045	0.000020	-7.952288	0.000012	17.603792	500.140668	56.599499	0.563352	0.000000	-1.106759	0.000029	-17.774701	0.000012
26.686000	27.632784	690.031113	-178.809457	0.399541	0.000000	-0.549910	0.000020	-8.002885	0.000012	15.762688	505.171411	58.629773	0.563599	0.000000	-1.106371	0.000029	-17.721706	0.000012
26.687000	26.562056	682.883128	-178.517717	0.399732	0.000000	-0.548772	0.000019	-8.054499	0.000012	13.889174	510.100617	60.659461	0.563849	0.000000	-1.105982	0.000030	-17.663999	0.000012
26.688000	25.486560	675.622603	-178.168949	0.399926	0.000000	-0.547632	0.000019	-8.107117	0.000012	11.986128	514.931375	62.687557	0.564102	0.000000	-1.105592	0.000030	-17.601817	0.000012
26.689000	24.407241	668.250848	-177.761965	0.400122	0.000000	-0.546490	0.000019	-8.160720	0.000012	10.056450	519.667038	64.713115	0.564356	0.000000	-1.105202	0.000031	-17.535401	0.000012
26.690000	23.325062	660.769321	-177.295634	0.400320	0.000000	-0.545346	0.000018	-8.215283	0.000012	8.103057	524.311213	66.735252	0.564613	0.000000	-1.104810	0.000031	-17.464988	0.000012
26.691000	22.241007	653.179630	-176.768877	0.400521	0.000000	-0.544199	0.000018	-8.270776	0.000012	6.128877	528.867739	68.753142	0.564871	0.000000	-1.104417	0.000031	-17.390816	0.000012
26.692000	21.156078	645.483535	-176.180683	0.400724	0.000000	-0.543049	0.000018	-8.327163	0.000012	4.136837	533.340681	70.766012	0.565131	0.000000	-1.104023	0.000032	-17.313119	0.000013
26.693000	20.071291	637.682953	-175.530104	0.400930	0.000000	-0.541897	0.000018	-8.384400	0.000012	2.129857	537.734304	72.773144	0.565391	0.000000	-1.103627	0.000032	-17.232134	0.000013
26.694000	18.987677	629.779958	-174.816267	0.401138	0.000000	-0.540743	0.000017	-8.442440	0.000011	0.110847	542.053064	74.773868	0.565653	0.000000	-1.103228	0.000032	-17.148091	0.000013
26.695000	17.906281	621.776783	-174.038373	0.401348	0.000000	-0.539586	0.000017	-8.501226	0.000011	-1.917305	546.301586	76.767560	0.565915	0.000000	-1.102828	0.000033	-17.061223	0.000013
26.696000	16.828154	613.675820	-173.195707	0.401561	0.000000	-0.538427	0.000017	-8.560697	0.000011	-3.951739	550.484645	78.753637	0.566178	0.000000	-1.102426	0.000033	-16.971756	0.000013
26.697000	15.754360	605.479624	-172.287638	0.401776	0.000000	-0.537265	0.000016	-8.620784	0.000011	-5.989625	554.607148	80.731553	0.566441	0.000000	-1.102021	0.000033	-16.879918	0.000013
26.698000	14.685966	597.190911	-171.313627	0.401993	0.000000	-0.536101	0.000016	-8.681412	0.000011	-8.028177	558.674117	82.700798	0.566703	0.000000	-1.101613	0.000034	-16.785929	0.000013
26.699000	13.624043	588.812556	-170.273230	0.402213	0.000000	-0.534934	0.000016	-8.742497	0.000011	-10.064650	562.690666	84.660888	0.566965	0.000000	-1.101202	0.000034	-16.690010	0.000013
26.700000	12.569666	580.347599	-169.166099	0.402435	0.000000	-0.533765	0.000016	-8.803952	0.000011	-12.096354	566.661980	86.611366	0.567226	0.000000	-1.100788	0.000035	-16.592376	0.000013
26.701000	11.523908	571.799235	-167.991993	0.402660	0.000000	-0.532593	0.000015	-8.865678	0.000011	-14.120655	570.593298	88.551796	0.567486	0.000000	-1.100371	0.000035	-16.493240	0.000013
26.702000	10.487839	563.170820	-166.750774	0.402887	0.000000	-0.531418	0.000015	-8.927574	0.000011	-16.134979	574.489890	90.481756	0.567744	0.000000	-1.099950	0.000035	-16.392811	0.000013
26.703000	9.462527	554.465866	-165.442417	0.403117	0.000000	-0.530241	0.000015	-8.989529	0.000011	-18.136820	578.357035	92.400839	0.568000	0.000000	-1.099526	0.000036	-16.291293	0.000013
26.704000	8.449029	545.688037	-164.067009	0.403349	0.000000	-0.529061	0.000014	-9.051425	0.000010	-20.123741	582.200005	94.308642	0.568255	0.000000	-1.099097	0.000036	-16.188885	0.000013
26.705000	7.448396	536.841151	-162.624752	0.403584	0.000000	-0.527878	0.000014	-9.113139	0.000010	-22.093382	586.024038	96.204767	0.568506	0.000000	-1.098664	0.000036	-16.085784	0.000013
26.706000	6.461667	527.929169	-161.115968	0.403821	0.000000	-0.526692	0.000014	-9.174539	0.000010	-24.043459	589.834323	98.088815	0.568755	0.000000	-1.098226	0.000037	-15.982179	0.000013
26.707000	5.489864	518.956199	-159.541101	0.404060	0.000000	-0.525503	0.000013	-9.235490	0.000010	-25.971768	593.635977	99.960383	0.569001	0.000000	-1.097783	0.000037	-15.878258	0.000014
26.708000	4.533997	509.926486	-157.900718	0.404303	0.000000	-0.524312	0.000013	-9.295847	0.000010	-27.876190	597.434026	101.819060	0.569243	0.000000	-1.097336	0.000038	-15.774202	0.000014
